<mxfile host="app.diagrams.net" modified="2023-02-02T19:35:00.533Z" agent="5.0 (Windows NT 10.0; Win64; x64) AppleWebKit/537.36 (KHTML, like Gecko) Chrome/109.0.0.0 Safari/537.36" etag="dyPucqH5-CQrKWQTBCXl" version="20.8.15" type="github">
  <diagram name="Page-1" id="cBZTfNxDBOca_C05iqZu">
    <mxGraphModel dx="1050" dy="558" grid="1" gridSize="10" guides="1" tooltips="1" connect="1" arrows="1" fold="1" page="1" pageScale="1" pageWidth="850" pageHeight="1100" math="0" shadow="0">
      <root>
        <mxCell id="0" />
        <mxCell id="1" parent="0" />
        <mxCell id="WNW1ZaH-a7NAcWxLnRLP-14" style="edgeStyle=orthogonalEdgeStyle;rounded=1;orthogonalLoop=1;jettySize=auto;html=1;exitX=1;exitY=0.5;exitDx=0;exitDy=0;entryX=0;entryY=0.5;entryDx=0;entryDy=0;" edge="1" parent="1" source="WNW1ZaH-a7NAcWxLnRLP-3" target="WNW1ZaH-a7NAcWxLnRLP-4">
          <mxGeometry relative="1" as="geometry" />
        </mxCell>
        <mxCell id="WNW1ZaH-a7NAcWxLnRLP-3" value="&lt;p style=&quot;margin:0px;margin-top:4px;text-align:center;text-decoration:underline;&quot;&gt;&lt;b&gt;a: Administrator&lt;/b&gt;&lt;/p&gt;&lt;hr&gt;&lt;p style=&quot;margin:0px;margin-left:8px;&quot;&gt;Responsibilities = &quot;approves&quot;&lt;br&gt;&lt;/p&gt;" style="verticalAlign=top;align=left;overflow=fill;fontSize=12;fontFamily=Helvetica;html=1;" vertex="1" parent="1">
          <mxGeometry x="10" y="240" width="200" height="60" as="geometry" />
        </mxCell>
        <mxCell id="WNW1ZaH-a7NAcWxLnRLP-13" style="edgeStyle=orthogonalEdgeStyle;rounded=1;orthogonalLoop=1;jettySize=auto;html=1;exitX=1;exitY=0.5;exitDx=0;exitDy=0;entryX=0;entryY=0.5;entryDx=0;entryDy=0;" edge="1" parent="1" source="WNW1ZaH-a7NAcWxLnRLP-4" target="WNW1ZaH-a7NAcWxLnRLP-5">
          <mxGeometry relative="1" as="geometry" />
        </mxCell>
        <mxCell id="WNW1ZaH-a7NAcWxLnRLP-4" value="&lt;p style=&quot;margin:0px;margin-top:4px;text-align:center;text-decoration:underline;&quot;&gt;&lt;b&gt;n: Nurse&lt;/b&gt;&lt;/p&gt;&lt;hr&gt;&lt;p style=&quot;margin:0px;margin-left:8px;&quot;&gt;Organize = &quot;Medical Records&quot;&lt;br&gt;&lt;/p&gt;" style="verticalAlign=top;align=left;overflow=fill;fontSize=12;fontFamily=Helvetica;html=1;" vertex="1" parent="1">
          <mxGeometry x="300" y="240" width="180" height="60" as="geometry" />
        </mxCell>
        <mxCell id="WNW1ZaH-a7NAcWxLnRLP-5" value="&lt;p style=&quot;margin:0px;margin-top:4px;text-align:center;text-decoration:underline;&quot;&gt;&lt;b&gt;m: Medical records&lt;/b&gt;&lt;/p&gt;&lt;hr&gt;&lt;p style=&quot;margin:0px;margin-left:8px;&quot;&gt;Author = &quot;doctor&quot;&lt;br&gt;&lt;/p&gt;" style="verticalAlign=top;align=left;overflow=fill;fontSize=12;fontFamily=Helvetica;html=1;" vertex="1" parent="1">
          <mxGeometry x="570" y="240" width="150" height="60" as="geometry" />
        </mxCell>
        <mxCell id="WNW1ZaH-a7NAcWxLnRLP-6" value="&lt;p style=&quot;margin:0px;margin-top:4px;text-align:center;text-decoration:underline;&quot;&gt;&lt;b&gt;x: Comments&lt;/b&gt;&lt;/p&gt;&lt;hr&gt;&lt;p style=&quot;margin:0px;margin-left:8px;&quot;&gt;display = &quot;yes&quot;&lt;br&gt;&lt;/p&gt;&lt;p style=&quot;margin:0px;margin-left:8px;&quot;&gt;Comments = &quot;pending&quot;&lt;/p&gt;" style="verticalAlign=top;align=left;overflow=fill;fontSize=12;fontFamily=Helvetica;html=1;" vertex="1" parent="1">
          <mxGeometry x="560" y="350" width="170" height="70" as="geometry" />
        </mxCell>
        <mxCell id="WNW1ZaH-a7NAcWxLnRLP-7" value="&lt;p style=&quot;margin:0px;margin-top:4px;text-align:center;text-decoration:underline;&quot;&gt;&lt;b&gt;p: Person&lt;/b&gt;&lt;/p&gt;&lt;hr&gt;&lt;p style=&quot;margin:0px;margin-left:8px;&quot;&gt;email = person@name.com&lt;br&gt;&lt;/p&gt;&lt;p style=&quot;margin:0px;margin-left:8px;&quot;&gt;Credentials = &quot;yes&quot;&lt;/p&gt;" style="verticalAlign=top;align=left;overflow=fill;fontSize=12;fontFamily=Helvetica;html=1;" vertex="1" parent="1">
          <mxGeometry x="290" y="350" width="170" height="70" as="geometry" />
        </mxCell>
        <mxCell id="WNW1ZaH-a7NAcWxLnRLP-11" value="1" style="endArrow=open;html=1;endSize=12;startArrow=diamondThin;startSize=14;startFill=0;edgeStyle=orthogonalEdgeStyle;align=left;verticalAlign=bottom;rounded=1;exitX=1;exitY=0.5;exitDx=0;exitDy=0;entryX=0.628;entryY=1.023;entryDx=0;entryDy=0;entryPerimeter=0;" edge="1" parent="1" source="WNW1ZaH-a7NAcWxLnRLP-5" target="WNW1ZaH-a7NAcWxLnRLP-7">
          <mxGeometry x="-1" y="3" relative="1" as="geometry">
            <mxPoint x="660" y="269.5" as="sourcePoint" />
            <mxPoint x="450" y="520" as="targetPoint" />
            <Array as="points">
              <mxPoint x="760" y="270" />
              <mxPoint x="760" y="460" />
              <mxPoint x="397" y="460" />
            </Array>
          </mxGeometry>
        </mxCell>
        <mxCell id="WNW1ZaH-a7NAcWxLnRLP-12" value="1" style="endArrow=open;html=1;endSize=12;startArrow=diamondThin;startSize=14;startFill=0;edgeStyle=orthogonalEdgeStyle;align=left;verticalAlign=bottom;rounded=1;exitX=0.5;exitY=1;exitDx=0;exitDy=0;entryX=0.5;entryY=0;entryDx=0;entryDy=0;" edge="1" parent="1" source="WNW1ZaH-a7NAcWxLnRLP-5" target="WNW1ZaH-a7NAcWxLnRLP-6">
          <mxGeometry x="-1" y="3" relative="1" as="geometry">
            <mxPoint x="340" y="360" as="sourcePoint" />
            <mxPoint x="500" y="360" as="targetPoint" />
          </mxGeometry>
        </mxCell>
        <mxCell id="WNW1ZaH-a7NAcWxLnRLP-16" value="1" style="endArrow=open;html=1;endSize=12;startArrow=diamondThin;startSize=14;startFill=0;edgeStyle=orthogonalEdgeStyle;align=left;verticalAlign=bottom;rounded=1;exitX=0;exitY=0.5;exitDx=0;exitDy=0;entryX=1;entryY=0.5;entryDx=0;entryDy=0;" edge="1" parent="1" source="WNW1ZaH-a7NAcWxLnRLP-6" target="WNW1ZaH-a7NAcWxLnRLP-7">
          <mxGeometry x="-1" y="3" relative="1" as="geometry">
            <mxPoint x="340" y="360" as="sourcePoint" />
            <mxPoint x="500" y="360" as="targetPoint" />
          </mxGeometry>
        </mxCell>
        <mxCell id="WNW1ZaH-a7NAcWxLnRLP-17" value="" style="endArrow=none;html=1;rounded=1;entryX=0;entryY=0.75;entryDx=0;entryDy=0;exitX=1;exitY=0.75;exitDx=0;exitDy=0;" edge="1" parent="1" source="WNW1ZaH-a7NAcWxLnRLP-7" target="WNW1ZaH-a7NAcWxLnRLP-6">
          <mxGeometry width="50" height="50" relative="1" as="geometry">
            <mxPoint x="400" y="380" as="sourcePoint" />
            <mxPoint x="450" y="330" as="targetPoint" />
          </mxGeometry>
        </mxCell>
      </root>
    </mxGraphModel>
  </diagram>
</mxfile>
